<svg width="256" height="256" viewBox="0 0 256 256" fill="none" xmlns="http://www.w3.org/2000/svg">
  <rect width="256" height="256" rx="16" fill="#1E1E1E" fill-opacity="0.1"/>
  <g>
    <path d="M128 36C123.582 36 120 39.582 120 44V80C120 84.418 123.582 88 128 88C132.418 88 136 84.418 136 80V44C136 39.582 132.418 36 128 36Z" fill="#7E57C2"/>
    <path d="M76 128C76 123.582 72.418 120 68 120H32C27.582 120 24 123.582 24 128C24 132.418 27.582 136 32 136H68C72.418 136 76 132.418 76 128Z" fill="#4FC3F7"/>
    <path d="M224 128C224 123.582 220.418 120 216 120H180C175.582 120 172 123.582 172 128C172 132.418 175.582 136 180 136H216C220.418 136 224 132.418 224 128Z" fill="#7E57C2"/>
    <path d="M128 220C132.418 220 136 216.418 136 212V176C136 171.582 132.418 168 128 168C123.582 168 120 171.582 120 176V212C120 216.418 123.582 220 128 220Z" fill="#4FC3F7"/>
    <path d="M194.142 73.8579C197.095 70.9052 197.095 66.261 194.142 63.3084L168.97 38.1366C166.018 35.184 161.374 35.184 158.421 38.1366C155.469 41.0892 155.469 45.7334 158.421 48.686L183.594 73.8579C186.547 76.8105 191.191 76.8105 194.142 73.8579Z" fill="#7E57C2"/>
    <path d="M61.8579 61.8579C58.9052 58.9052 54.261 58.9052 51.3084 61.8579L26.1366 87.0297C23.184 89.9823 23.184 94.6266 26.1366 97.5792C29.0892 100.532 33.7334 100.532 36.686 97.5792L61.8579 72.4074C64.8105 69.4547 64.8105 64.8105 61.8579 61.8579Z" fill="#FF5252"/>
    <path d="M61.8579 194.142C64.8105 191.19 64.8105 186.546 61.8579 183.593L36.686 158.421C33.7334 155.468 29.0892 155.468 26.1366 158.421C23.184 161.374 23.184 166.018 26.1366 168.97L51.3084 194.142C54.261 197.095 58.9052 197.095 61.8579 194.142Z" fill="#7E57C2"/>
    <path d="M194.142 182.142C191.19 179.19 186.546 179.19 183.593 182.142L158.421 207.314C155.468 210.266 155.468 214.911 158.421 217.863C161.374 220.816 166.018 220.816 168.97 217.863L194.142 192.691C197.095 189.739 197.095 185.095 194.142 182.142Z" fill="#4FC3F7"/>
    <circle cx="128" cy="128" r="32" fill="#FFD54F"/>
  </g>
  <g>
    <path d="M80 104L60 148" stroke="#FF5252" stroke-width="8" stroke-linecap="round"/>
    <path d="M168 104L188 148" stroke="#7E57C2" stroke-width="8" stroke-linecap="round"/>
    <path d="M92 160L156 160" stroke="#4FC3F7" stroke-width="8" stroke-linecap="round"/>
  </g>
</svg>